<svg width="24" height="24" viewBox="0 0 24 24" fill="none" xmlns="http://www.w3.org/2000/svg">
<path d="M12.002 21.041C9.54195 21.041 9.25195 21.028 8.29195 20.986C7.54332 20.9614 6.80438 20.8092 6.10695 20.536C5.51013 20.3037 4.96813 19.9499 4.51537 19.497C4.06261 19.044 3.70899 18.5019 3.47695 17.905C3.21426 17.205 3.07257 16.4655 3.05795 15.718C3.00195 14.76 3.00195 14.446 3.00195 12.005C3.00195 9.538 3.01495 9.25 3.05795 8.295C3.07289 7.54853 3.21457 6.81001 3.47695 6.111C3.70872 5.51334 4.06258 4.97058 4.51595 4.51739C4.96931 4.0642 5.5122 3.71055 6.10995 3.479C6.8086 3.21521 7.5473 3.07315 8.29395 3.059C9.24895 3.005 9.56295 3.005 12.002 3.005C14.482 3.005 14.767 3.018 15.712 3.059C16.46 3.073 17.202 3.215 17.902 3.479C18.4995 3.71081 19.0423 4.06457 19.4956 4.51772C19.949 4.97088 20.3029 5.5135 20.535 6.111C20.802 6.821 20.945 7.571 20.956 8.328C21.012 9.28601 21.012 9.599 21.012 12.039C21.012 14.479 20.998 14.799 20.956 15.746C20.941 16.4942 20.799 17.2344 20.536 17.935C20.3033 18.5323 19.949 19.0748 19.4956 19.5279C19.0422 19.981 18.4995 20.3348 17.902 20.567C17.202 20.829 16.463 20.971 15.716 20.986C14.761 21.041 14.448 21.041 12.002 21.041ZM11.968 4.588C9.52195 4.588 9.26795 4.6 8.31295 4.643C7.7426 4.65046 7.17775 4.75565 6.64295 4.954C6.25288 5.10352 5.89847 5.33311 5.60257 5.62799C5.30667 5.92286 5.07583 6.27646 4.92495 6.666C4.72495 7.206 4.61995 7.777 4.61395 8.353C4.56095 9.322 4.56095 9.576 4.56095 12.005C4.56095 14.405 4.56995 14.696 4.61395 15.659C4.62295 16.229 4.72795 16.794 4.92495 17.329C5.23095 18.116 5.85495 18.738 6.64395 19.04C7.17806 19.2396 7.7428 19.3448 8.31295 19.351C9.28095 19.407 9.53595 19.407 11.968 19.407C14.421 19.407 14.675 19.395 15.622 19.351C16.1924 19.3441 16.7573 19.2389 17.292 19.04C17.6799 18.8893 18.0323 18.6596 18.3267 18.3654C18.6211 18.0712 18.8511 17.7189 19.002 17.331C19.202 16.791 19.307 16.219 19.313 15.643H19.324C19.367 14.687 19.367 14.432 19.367 11.989C19.367 9.54601 19.356 9.289 19.313 8.334C19.3039 7.76446 19.1988 7.20054 19.002 6.666C18.8514 6.27755 18.6216 5.92471 18.3272 5.62995C18.0328 5.3352 17.6802 5.105 17.292 4.954C16.7574 4.75469 16.1924 4.64947 15.622 4.643C14.655 4.588 14.402 4.588 11.968 4.588ZM12.002 16.624C11.0875 16.6246 10.1935 16.354 9.43284 15.8464C8.67222 15.3388 8.07921 14.6171 7.72882 13.7725C7.37842 12.9278 7.28638 11.9983 7.46434 11.1013C7.6423 10.2044 8.08227 9.38034 8.72858 8.73347C9.3749 8.08659 10.1985 7.64591 11.0953 7.46718C11.9921 7.28844 12.9218 7.37967 13.7667 7.72934C14.6116 8.079 15.3339 8.67138 15.8421 9.43156C16.3504 10.1917 16.6218 11.0856 16.622 12C16.6204 13.2252 16.1332 14.3998 15.2673 15.2665C14.4013 16.1332 13.2271 16.6214 12.002 16.624ZM12.002 8.998C11.4086 8.998 10.8286 9.17395 10.3352 9.5036C9.84189 9.83324 9.45738 10.3018 9.23031 10.85C9.00325 11.3981 8.94384 12.0013 9.0596 12.5833C9.17535 13.1652 9.46108 13.6998 9.88063 14.1193C10.3002 14.5389 10.8347 14.8246 11.4167 14.9404C11.9986 15.0561 12.6018 14.9967 13.15 14.7696C13.6982 14.5426 14.1667 14.1581 14.4964 13.6647C14.826 13.1714 15.002 12.5913 15.002 11.998C15.0001 11.2029 14.6834 10.4409 14.1212 9.87873C13.559 9.31652 12.797 8.99985 12.002 8.998ZM16.802 8.285C16.6604 8.28448 16.5203 8.25608 16.3897 8.20142C16.2591 8.14676 16.1406 8.06691 16.0409 7.96644C15.8394 7.76352 15.7269 7.48891 15.728 7.203C15.729 6.9171 15.8436 6.64333 16.0465 6.44192C16.2494 6.2405 16.524 6.12794 16.81 6.129C17.0959 6.13007 17.3696 6.24466 17.571 6.44757C17.7725 6.65049 17.885 6.9251 17.884 7.211C17.8829 7.49691 17.7683 7.77068 17.5654 7.97209C17.3625 8.17351 17.0879 8.28607 16.802 8.285Z" fill="white"/>
</svg>
